<?xml version="1.0" encoding="UTF-8" standalone="no"?>
<svg
   width="128"
   height="128"
   version="1.1"
   id="svg6"
   sodipodi:docname="icon.svg"
   inkscape:version="1.4 (e7c3feb100, 2024-10-09)"
   xmlns:inkscape="http://www.inkscape.org/namespaces/inkscape"
   xmlns:sodipodi="http://sodipodi.sourceforge.net/DTD/sodipodi-0.dtd"
   xmlns="http://www.w3.org/2000/svg"
   xmlns:svg="http://www.w3.org/2000/svg">
  <defs
     id="defs6" />
  <sodipodi:namedview
     id="namedview6"
     pagecolor="#ffffff"
     bordercolor="#000000"
     borderopacity="0.25"
     inkscape:showpageshadow="2"
     inkscape:pageopacity="0.0"
     inkscape:pagecheckerboard="0"
     inkscape:deskcolor="#d1d1d1"
     inkscape:zoom="1.6683301"
     inkscape:cx="-80.619539"
     inkscape:cy="77.922231"
     inkscape:window-width="1920"
     inkscape:window-height="1055"
     inkscape:window-x="0"
     inkscape:window-y="25"
     inkscape:window-maximized="1"
     inkscape:current-layer="svg6" />
  <rect
     width="124"
     height="124"
     x="2"
     y="2"
     fill="#363d52"
     stroke="#212532"
     stroke-width="4"
     rx="14"
     id="rect1" />
  <g
     fill="#ffffff"
     transform="matrix(0.06572092,0,0,0.06572092,8.0566572,9.9435739)"
     id="g4">
    <path
       d="m 105,673 v 33 q 407,354 814,0 v -33 z"
       id="path1" />
    <path
       fill="#478cbf"
       d="m 105,673 152,14 q 12,1 15,14 l 4,67 132,10 8,-61 q 2,-11 15,-15 h 162 q 13,4 15,15 l 8,61 132,-10 4,-67 q 3,-13 15,-14 L 919,673 V 427 q 30,-39 56,-81 -35,-59 -83,-108 -43,20 -82,47 -40,-37 -88,-64 7,-51 8,-102 -59,-28 -123,-42 -26,43 -46,89 -49,-7 -98,0 -20,-46 -46,-89 -64,14 -123,42 1,51 8,102 -48,27 -88,64 -39,-27 -82,-47 -48,49 -83,108 26,42 56,81 z m 0,33 v 39 c 0,276 813,276 814,0 v -39 l -134,12 -5,69 q -2,10 -14,13 l -162,11 q -12,0 -16,-11 L 578,735 H 446 l -10,65 q -4,11 -16,11 L 258,800 q -12,-3 -14,-13 l -5,-69 z"
       id="path2" />
    <path
       d="m 483,600 c 0,34 58,34 58,0 v -86 c 0,-34 -58,-34 -58,0 z"
       id="path3" />
    <circle
       cx="725"
       cy="526"
       r="90"
       id="circle3" />
    <circle
       cx="299"
       cy="526"
       r="90"
       id="circle4" />
  </g>
  <g
     fill="#414042"
     transform="matrix(0.06572092,0,0,0.06572092,8.0566572,9.9435739)"
     id="g6">
    <circle
       cx="307"
       cy="532"
       r="60"
       id="circle5" />
    <circle
       cx="717"
       cy="532"
       r="60"
       id="circle6" />
  </g>
  <rect
     style="fill:#1a1a1a;stroke-width:19.6535;stroke-linecap:round;stroke-linejoin:round;paint-order:markers stroke fill"
     id="rect6"
     width="32.367695"
     height="53.196907"
     x="76.423721"
     y="50.499603"
     rx="14" />
  <rect
     style="fill:#f9f9f9;stroke-width:19.6535;stroke-linecap:round;stroke-linejoin:round;paint-order:markers stroke fill"
     id="rect7"
     width="7.9420733"
     height="5.3946161"
     x="76.453102"
     y="64.874596" />
  <rect
     style="fill:#f9f9f9;stroke-width:19.6535;stroke-linecap:round;stroke-linejoin:round;paint-order:markers stroke fill"
     id="rect7-3"
     width="7.9420733"
     height="5.3946161"
     x="76.426117"
     y="74.795998" />
  <rect
     style="fill:#f9f9f9;stroke-width:19.6535;stroke-linecap:round;stroke-linejoin:round;paint-order:markers stroke fill"
     id="rect7-6"
     width="7.9420733"
     height="5.3946161"
     x="76.450333"
     y="84.915855" />
  <rect
     style="fill:#f9f9f9;stroke-width:19.6535;stroke-linecap:round;stroke-linejoin:round;paint-order:markers stroke fill"
     id="rect7-7"
     width="7.9420733"
     height="5.3946161"
     x="100.8532"
     y="64.885094" />
  <rect
     style="fill:#f9f9f9;stroke-width:19.6535;stroke-linecap:round;stroke-linejoin:round;paint-order:markers stroke fill"
     id="rect7-3-5"
     width="7.9420733"
     height="5.3946161"
     x="100.82622"
     y="74.806496" />
  <rect
     style="fill:#f9f9f9;stroke-width:19.6535;stroke-linecap:round;stroke-linejoin:round;paint-order:markers stroke fill"
     id="rect7-6-3"
     width="7.9420733"
     height="5.3946161"
     x="100.85043"
     y="84.926353" />
  <rect
     style="fill:#1a1a1a;stroke-width:19.6535;stroke-linecap:round;stroke-linejoin:round;paint-order:markers stroke fill"
     id="rect8"
     width="7.1928215"
     height="15.959072"
     x="89.235939"
     y="102.87233" />
  <rect
     style="fill:#1a1a1a;stroke-width:21.0243;stroke-linecap:round;stroke-linejoin:round;paint-order:markers stroke fill"
     id="rect9"
     width="32.667397"
     height="3.1468594"
     x="76.273872"
     y="117.78246" />
  <circle
     style="fill:#cccccc;stroke-width:19.6535;stroke-linecap:round;stroke-linejoin:round;paint-order:markers stroke fill"
     id="path10"
     cx="39.629143"
     cy="97.695358"
     r="12.927153" />
  <circle
     style="fill:#ff0000;stroke-width:19.6535;stroke-linecap:round;stroke-linejoin:round;paint-order:markers stroke fill"
     id="path11"
     cx="39.629143"
     cy="97.907272"
     r="11.86755" />
</svg>
